# xmcd
#
# Track frame offsets: 
#        150
#        17564
#        31906
#        49808
#        64937
#        81005
#        96267
#        114055
#
# Disc length: 1709 seconds
#
# Revision: 1
# Processed by: cddbd v1.5.2PL0 Copyright (c) Steve Scherf et al.
# Submitted via: ExactAudioCopy v0.95a5
#
DISCID=5806ab08
DTITLE=John Berry - Celebrate This Christmas
DYEAR=2005
DGENRE=Christmas
TTITLE0=Go Tell It On The Mountain/Angels We Have Heard On High
TTITLE1=Celebrate This Christmas
TTITLE2=White Christmas
TTITLE3=Hark The Herald Angels Sing
TTITLE4=Mary Did You Know
TTITLE5=The First Noel
TTITLE6=Let's Fall In Love This Christmas
TTITLE7=Children Go
EXTD=
EXTT0=
EXTT1=
EXTT2=
EXTT3=
EXTT4=
EXTT5=
EXTT6=
EXTT7=
PLAYORDER=
